<svg width="444" height="190" viewBox="0 0 444 190" fill="none" xmlns="http://www.w3.org/2000/svg">
<path d="M0 32C0 14.3269 14.3269 0 32 0H412C429.673 0 444 14.3269 444 32V190H32C14.3269 190 0 175.673 0 158V32Z" fill="#007346"/>
<rect x="312" y="28" width="91" height="91" fill="#007346"/>
<path d="M341.423 48.9299H357.803L345.67 65.3099H357.803L345.973 81.3866H354.012L341.423 97.7666H321.403L333.84 81.3866H317.46L341.423 48.9299Z" fill="white"/>
<path d="M374.487 48.9299H358.107L370.24 65.3099H358.107L369.937 81.3866H361.898L374.487 97.7666H394.507L382.525 81.3866H398.45L374.487 48.9299Z" fill="white"/>
<path d="M90.216 76.352C90.216 81.984 88.7013 86.528 85.672 89.984C82.6853 93.44 78.3333 95.5733 72.616 96.384C71.3787 96.5547 70.2267 96.6827 69.16 96.768C68.0933 96.8533 66.9627 96.896 65.768 96.896C58.472 96.896 52.84 95.0613 48.872 91.392C44.9467 87.68 42.984 82.6667 42.984 76.352V51.2H59.56V76.672C59.56 78.6347 60.2 80.256 61.48 81.536C62.76 82.816 64.4667 83.456 66.6 83.456C68.648 83.456 70.312 82.8373 71.592 81.6C72.9147 80.32 73.576 78.6773 73.576 76.672V51.2H90.216V76.352ZM130.844 96H115.932V77.952L115.868 75.968C115.782 75.1147 115.462 74.4533 114.908 73.984C114.353 73.5147 113.67 73.28 112.86 73.28C112.476 73.28 112.028 73.3653 111.516 73.536C111.004 73.664 110.342 74.112 109.532 74.88L109.212 75.2L108.956 75.52V96H94.1715V61.056H108.956V66.432L109.532 65.6C111.494 62.9973 113.756 61.376 116.316 60.736C116.998 60.5653 117.617 60.4373 118.172 60.352C118.726 60.2667 119.345 60.224 120.028 60.224C123.185 60.224 125.766 61.3333 127.772 63.552C129.82 65.728 130.844 68.608 130.844 72.192V96ZM211.483 96H196.763V78.336C196.763 77.184 196.699 76.352 196.571 75.84C196.23 74.1333 195.206 73.28 193.499 73.28C193.158 73.28 192.816 73.344 192.475 73.472C192.176 73.6 191.856 73.7707 191.515 73.984L190.107 75.2L189.787 75.648L189.531 75.904V76.48V77.056V78.528V96H174.811V78.272C174.811 77.2053 174.747 76.352 174.619 75.712C174.491 75.072 174.171 74.5173 173.659 74.048C173.147 73.5787 172.507 73.344 171.739 73.344C171.184 73.344 170.672 73.472 170.203 73.728C169.776 73.984 169.392 74.2187 169.051 74.432C168.923 74.5173 168.582 74.816 168.027 75.328L167.643 75.84V96H152.859V61.056H167.643V65.408C168.24 64.5547 168.987 63.808 169.883 63.168C171.035 62.2293 172.315 61.5253 173.723 61.056C175.131 60.544 176.518 60.288 177.883 60.288C180.187 60.288 182.299 60.9067 184.219 62.144C186.139 63.3387 187.504 64.9813 188.315 67.072L189.211 65.728C191.259 62.9973 193.84 61.2907 196.955 60.608C197.254 60.5227 197.702 60.4587 198.299 60.416C198.939 60.3307 199.558 60.288 200.155 60.288C203.526 60.288 206.256 61.3973 208.347 63.616C210.438 65.8347 211.483 68.8 211.483 72.512V96ZM249.534 93.184L248.126 93.824C247.656 94.0373 247.08 94.272 246.398 94.528C245.715 94.7413 245.096 94.9333 244.542 95.104C241.043 96.2133 237.63 96.768 234.302 96.768C228.456 96.768 223.763 95.0827 220.222 91.712C216.723 88.2987 214.974 83.904 214.974 78.528C214.974 74.7733 215.784 71.4453 217.406 68.544C219.07 65.6427 221.331 63.4667 224.19 62.016C225.598 61.376 226.878 60.9493 228.03 60.736C229.779 60.352 231.422 60.16 232.958 60.16C237.95 60.16 241.96 61.888 244.99 65.344C248.019 68.8 249.534 73.4507 249.534 79.296L249.47 80.704H229.566C229.779 82.496 230.654 83.904 232.19 84.928C233.768 85.952 236.03 86.464 238.974 86.464C240.126 86.464 241.427 86.2933 242.878 85.952C244.328 85.6107 246.014 85.056 247.934 84.288L249.534 83.584V93.184ZM237.566 74.944V73.984C237.395 72.832 236.968 71.936 236.286 71.296C235.646 70.6133 234.856 70.272 233.918 70.272C232.936 70.272 232.083 70.592 231.358 71.232C230.632 71.872 230.184 72.768 230.014 73.92L229.95 74.944H237.566ZM291.255 96H276.471V92.928C273.996 95.488 270.839 96.768 266.999 96.768C265.719 96.768 264.503 96.6187 263.351 96.32C260.108 95.424 257.527 93.5253 255.607 90.624C253.559 87.552 252.535 83.7547 252.535 79.232C252.535 77.3547 252.727 75.392 253.111 73.344C253.879 69.2907 255.628 66.0907 258.359 63.744C261.089 61.3973 264.417 60.224 268.343 60.224C270.433 60.224 272.673 60.608 275.063 61.376L276.599 61.888V51.2H291.255V96ZM276.471 83.328V72.832C275.788 72.448 275.127 72.2133 274.487 72.128C273.847 72 273.377 71.936 273.079 71.936C271.415 71.936 270.071 72.5333 269.047 73.728C268.065 74.88 267.575 76.5013 267.575 78.592C267.575 79.4453 267.681 80.3413 267.895 81.28C268.108 82.176 268.641 82.9867 269.495 83.712C270.391 84.3947 271.436 84.736 272.631 84.736C273.697 84.736 274.7 84.4373 275.639 83.84L276.471 83.328Z" fill="white"/>
<rect x="135.474" y="64.9998" width="11.8419" height="30.7888" rx="1" fill="white"/>
<rect x="135" y="53" width="12.7892" height="8.99982" rx="4.49991" fill="white"/>
<path d="M92.064 138.888C92.064 140.253 91.7333 141.416 91.072 142.376C90.4107 143.315 89.4613 144.04 88.224 144.552C87.008 145.064 85.568 145.32 83.904 145.32C83.0507 145.32 82.2293 145.277 81.44 145.192C80.672 145.107 79.968 144.989 79.328 144.84C78.688 144.669 78.1227 144.467 77.632 144.232V141.48C78.4 141.821 79.3493 142.131 80.48 142.408C81.632 142.685 82.816 142.824 84.032 142.824C85.1627 142.824 86.112 142.675 86.88 142.376C87.648 142.077 88.224 141.651 88.608 141.096C88.992 140.541 89.184 139.891 89.184 139.144C89.184 138.397 89.024 137.768 88.704 137.256C88.384 136.744 87.8293 136.275 87.04 135.848C86.272 135.4 85.1947 134.931 83.808 134.44C82.8267 134.077 81.9627 133.693 81.216 133.288C80.4907 132.861 79.8827 132.381 79.392 131.848C78.9013 131.315 78.528 130.707 78.272 130.024C78.0373 129.341 77.92 128.552 77.92 127.656C77.92 126.44 78.2293 125.405 78.848 124.552C79.4667 123.677 80.32 123.005 81.408 122.536C82.5173 122.067 83.7867 121.832 85.216 121.832C86.4747 121.832 87.6267 121.949 88.672 122.184C89.7173 122.419 90.6667 122.728 91.52 123.112L90.624 125.576C89.8347 125.235 88.9707 124.947 88.032 124.712C87.1147 124.477 86.1547 124.36 85.152 124.36C84.192 124.36 83.392 124.499 82.752 124.776C82.112 125.053 81.632 125.448 81.312 125.96C80.992 126.451 80.832 127.027 80.832 127.688C80.832 128.456 80.992 129.096 81.312 129.608C81.632 130.12 82.1547 130.579 82.88 130.984C83.6053 131.389 84.5867 131.827 85.824 132.296C87.168 132.787 88.2987 133.32 89.216 133.896C90.1547 134.451 90.8587 135.123 91.328 135.912C91.8187 136.701 92.064 137.693 92.064 138.888ZM102.459 127.56C104.549 127.56 106.096 128.019 107.099 128.936C108.101 129.853 108.603 131.315 108.603 133.32V145H106.555L106.011 142.568H105.883C105.392 143.187 104.88 143.709 104.347 144.136C103.835 144.541 103.237 144.84 102.555 145.032C101.893 145.224 101.083 145.32 100.123 145.32C99.0985 145.32 98.1705 145.139 97.3385 144.776C96.5278 144.413 95.8878 143.859 95.4185 143.112C94.9492 142.344 94.7145 141.384 94.7145 140.232C94.7145 138.525 95.3865 137.213 96.7305 136.296C98.0745 135.357 100.144 134.845 102.939 134.76L105.851 134.664V133.64C105.851 132.211 105.541 131.219 104.923 130.664C104.304 130.109 103.429 129.832 102.299 129.832C101.403 129.832 100.549 129.971 99.7385 130.248C98.9278 130.504 98.1705 130.803 97.4665 131.144L96.6025 129.032C97.3492 128.627 98.2345 128.285 99.2585 128.008C100.283 127.709 101.349 127.56 102.459 127.56ZM103.291 136.712C101.157 136.797 99.6745 137.139 98.8425 137.736C98.0318 138.333 97.6265 139.176 97.6265 140.264C97.6265 141.224 97.9145 141.928 98.4905 142.376C99.0878 142.824 99.8452 143.048 100.763 143.048C102.213 143.048 103.419 142.653 104.379 141.864C105.339 141.053 105.819 139.816 105.819 138.152V136.616L103.291 136.712ZM121.836 127.528C123.884 127.528 125.431 128.029 126.476 129.032C127.521 130.013 128.044 131.613 128.044 133.832V145H125.26V134.024C125.26 132.637 124.951 131.603 124.332 130.92C123.713 130.237 122.743 129.896 121.42 129.896C119.521 129.896 118.209 130.429 117.484 131.496C116.759 132.563 116.396 134.099 116.396 136.104V145H113.58V127.848H115.852L116.268 130.184H116.428C116.812 129.587 117.281 129.096 117.836 128.712C118.412 128.307 119.041 128.008 119.724 127.816C120.407 127.624 121.111 127.528 121.836 127.528ZM138.769 143.016C139.196 143.016 139.633 142.984 140.081 142.92C140.529 142.835 140.892 142.749 141.169 142.664V144.808C140.871 144.957 140.444 145.075 139.889 145.16C139.335 145.267 138.801 145.32 138.289 145.32C137.393 145.32 136.561 145.171 135.793 144.872C135.047 144.552 134.439 144.008 133.969 143.24C133.5 142.472 133.265 141.395 133.265 140.008V130.024H130.833V128.68L133.297 127.56L134.417 123.912H136.081V127.848H141.041V130.024H136.081V139.944C136.081 140.989 136.327 141.768 136.817 142.28C137.329 142.771 137.98 143.016 138.769 143.016ZM150.78 127.56C152.87 127.56 154.417 128.019 155.42 128.936C156.422 129.853 156.924 131.315 156.924 133.32V145H154.876L154.332 142.568H154.204C153.713 143.187 153.201 143.709 152.668 144.136C152.156 144.541 151.558 144.84 150.876 145.032C150.214 145.224 149.404 145.32 148.444 145.32C147.42 145.32 146.492 145.139 145.66 144.776C144.849 144.413 144.209 143.859 143.74 143.112C143.27 142.344 143.036 141.384 143.036 140.232C143.036 138.525 143.708 137.213 145.052 136.296C146.396 135.357 148.465 134.845 151.26 134.76L154.172 134.664V133.64C154.172 132.211 153.862 131.219 153.244 130.664C152.625 130.109 151.75 129.832 150.62 129.832C149.724 129.832 148.87 129.971 148.06 130.248C147.249 130.504 146.492 130.803 145.788 131.144L144.924 129.032C145.67 128.627 146.556 128.285 147.58 128.008C148.604 127.709 149.67 127.56 150.78 127.56ZM151.612 136.712C149.478 136.797 147.996 137.139 147.164 137.736C146.353 138.333 145.948 139.176 145.948 140.264C145.948 141.224 146.236 141.928 146.812 142.376C147.409 142.824 148.166 143.048 149.084 143.048C150.534 143.048 151.74 142.653 152.7 141.864C153.66 141.053 154.14 139.816 154.14 138.152V136.616L151.612 136.712ZM180.07 124.36C178.854 124.36 177.755 124.573 176.774 125C175.792 125.405 174.96 126.013 174.278 126.824C173.595 127.613 173.072 128.584 172.71 129.736C172.347 130.867 172.166 132.147 172.166 133.576C172.166 135.453 172.454 137.085 173.03 138.472C173.627 139.859 174.502 140.925 175.654 141.672C176.827 142.419 178.288 142.792 180.038 142.792C181.04 142.792 181.99 142.707 182.886 142.536C183.782 142.365 184.656 142.152 185.51 141.896V144.392C184.656 144.712 183.771 144.947 182.854 145.096C181.958 145.245 180.88 145.32 179.622 145.32C177.296 145.32 175.355 144.84 173.798 143.88C172.24 142.92 171.067 141.555 170.278 139.784C169.51 138.013 169.126 135.933 169.126 133.544C169.126 131.816 169.36 130.237 169.83 128.808C170.32 127.379 171.024 126.141 171.942 125.096C172.88 124.051 174.032 123.251 175.398 122.696C176.763 122.12 178.331 121.832 180.102 121.832C181.275 121.832 182.406 121.949 183.494 122.184C184.582 122.419 185.552 122.749 186.406 123.176L185.254 125.608C184.55 125.288 183.76 125 182.886 124.744C182.032 124.488 181.094 124.36 180.07 124.36ZM196.289 127.56C198.379 127.56 199.926 128.019 200.929 128.936C201.931 129.853 202.433 131.315 202.433 133.32V145H200.385L199.841 142.568H199.713C199.222 143.187 198.71 143.709 198.177 144.136C197.665 144.541 197.067 144.84 196.385 145.032C195.723 145.224 194.913 145.32 193.953 145.32C192.929 145.32 192.001 145.139 191.169 144.776C190.358 144.413 189.718 143.859 189.249 143.112C188.779 142.344 188.545 141.384 188.545 140.232C188.545 138.525 189.217 137.213 190.561 136.296C191.905 135.357 193.974 134.845 196.769 134.76L199.681 134.664V133.64C199.681 132.211 199.371 131.219 198.753 130.664C198.134 130.109 197.259 129.832 196.129 129.832C195.233 129.832 194.379 129.971 193.569 130.248C192.758 130.504 192.001 130.803 191.297 131.144L190.433 129.032C191.179 128.627 192.065 128.285 193.089 128.008C194.113 127.709 195.179 127.56 196.289 127.56ZM197.121 136.712C194.987 136.797 193.505 137.139 192.673 137.736C191.862 138.333 191.457 139.176 191.457 140.264C191.457 141.224 191.745 141.928 192.321 142.376C192.918 142.824 193.675 143.048 194.593 143.048C196.043 143.048 197.249 142.653 198.209 141.864C199.169 141.053 199.649 139.816 199.649 138.152V136.616L197.121 136.712ZM213.138 143.016C213.565 143.016 214.002 142.984 214.45 142.92C214.898 142.835 215.261 142.749 215.538 142.664V144.808C215.239 144.957 214.813 145.075 214.258 145.16C213.703 145.267 213.17 145.32 212.658 145.32C211.762 145.32 210.93 145.171 210.162 144.872C209.415 144.552 208.807 144.008 208.338 143.24C207.869 142.472 207.634 141.395 207.634 140.008V130.024H205.202V128.68L207.666 127.56L208.786 123.912H210.45V127.848H215.41V130.024H210.45V139.944C210.45 140.989 210.695 141.768 211.186 142.28C211.698 142.771 212.349 143.016 213.138 143.016ZM225.148 127.56C227.239 127.56 228.786 128.019 229.788 128.936C230.791 129.853 231.292 131.315 231.292 133.32V145H229.244L228.7 142.568H228.572C228.082 143.187 227.57 143.709 227.036 144.136C226.524 144.541 225.927 144.84 225.244 145.032C224.583 145.224 223.772 145.32 222.812 145.32C221.788 145.32 220.86 145.139 220.028 144.776C219.218 144.413 218.578 143.859 218.108 143.112C217.639 142.344 217.404 141.384 217.404 140.232C217.404 138.525 218.076 137.213 219.42 136.296C220.764 135.357 222.834 134.845 225.628 134.76L228.54 134.664V133.64C228.54 132.211 228.231 131.219 227.612 130.664C226.994 130.109 226.119 129.832 224.988 129.832C224.092 129.832 223.239 129.971 222.428 130.248C221.618 130.504 220.86 130.803 220.156 131.144L219.292 129.032C220.039 128.627 220.924 128.285 221.948 128.008C222.972 127.709 224.039 127.56 225.148 127.56ZM225.98 136.712C223.847 136.797 222.364 137.139 221.532 137.736C220.722 138.333 220.316 139.176 220.316 140.264C220.316 141.224 220.604 141.928 221.18 142.376C221.778 142.824 222.535 143.048 223.452 143.048C224.903 143.048 226.108 142.653 227.068 141.864C228.028 141.053 228.508 139.816 228.508 138.152V136.616L225.98 136.712ZM244.27 127.528C244.59 127.528 244.931 127.549 245.294 127.592C245.678 127.613 246.009 127.656 246.286 127.72L245.934 130.312C245.657 130.248 245.347 130.195 245.006 130.152C244.686 130.109 244.377 130.088 244.078 130.088C243.417 130.088 242.787 130.227 242.19 130.504C241.593 130.781 241.059 131.176 240.59 131.688C240.121 132.179 239.747 132.776 239.47 133.48C239.214 134.184 239.086 134.973 239.086 135.848V145H236.27V127.848H238.574L238.894 130.984H239.022C239.385 130.344 239.822 129.768 240.334 129.256C240.846 128.723 241.433 128.307 242.094 128.008C242.755 127.688 243.481 127.528 244.27 127.528ZM251.985 127.848V145H249.169V127.848H251.985ZM250.609 121.416C251.035 121.416 251.409 121.565 251.729 121.864C252.07 122.141 252.241 122.589 252.241 123.208C252.241 123.805 252.07 124.253 251.729 124.552C251.409 124.851 251.035 125 250.609 125C250.139 125 249.745 124.851 249.425 124.552C249.105 124.253 248.945 123.805 248.945 123.208C248.945 122.589 249.105 122.141 249.425 121.864C249.745 121.565 250.139 121.416 250.609 121.416ZM265.355 127.528C267.403 127.528 268.949 128.029 269.995 129.032C271.04 130.013 271.563 131.613 271.563 133.832V145H268.779V134.024C268.779 132.637 268.469 131.603 267.851 130.92C267.232 130.237 266.261 129.896 264.939 129.896C263.04 129.896 261.728 130.429 261.003 131.496C260.277 132.563 259.915 134.099 259.915 136.104V145H257.099V127.848H259.371L259.787 130.184H259.947C260.331 129.587 260.8 129.096 261.355 128.712C261.931 128.307 262.56 128.008 263.243 127.816C263.925 127.624 264.629 127.528 265.355 127.528ZM283.056 127.56C285.147 127.56 286.693 128.019 287.696 128.936C288.699 129.853 289.2 131.315 289.2 133.32V145H287.152L286.608 142.568H286.48C285.989 143.187 285.477 143.709 284.944 144.136C284.432 144.541 283.835 144.84 283.152 145.032C282.491 145.224 281.68 145.32 280.72 145.32C279.696 145.32 278.768 145.139 277.936 144.776C277.125 144.413 276.485 143.859 276.016 143.112C275.547 142.344 275.312 141.384 275.312 140.232C275.312 138.525 275.984 137.213 277.328 136.296C278.672 135.357 280.741 134.845 283.536 134.76L286.448 134.664V133.64C286.448 132.211 286.139 131.219 285.52 130.664C284.901 130.109 284.027 129.832 282.896 129.832C282 129.832 281.147 129.971 280.336 130.248C279.525 130.504 278.768 130.803 278.064 131.144L277.2 129.032C277.947 128.627 278.832 128.285 279.856 128.008C280.88 127.709 281.947 127.56 283.056 127.56ZM283.888 136.712C281.755 136.797 280.272 137.139 279.44 137.736C278.629 138.333 278.224 139.176 278.224 140.264C278.224 141.224 278.512 141.928 279.088 142.376C279.685 142.824 280.443 143.048 281.36 143.048C282.811 143.048 284.016 142.653 284.976 141.864C285.936 141.053 286.416 139.816 286.416 138.152V136.616L283.888 136.712Z" fill="white"/>
<line x1="41.0042" y1="105.5" x2="398.004" y2="106.5" stroke="white" stroke-width="3"/>
<line x1="306.5" y1="49" x2="306.5" y2="161" stroke="white" stroke-width="3"/>
</svg>
